<svg width="32" height="32" viewBox="0 0 32 32" fill="none" xmlns="http://www.w3.org/2000/svg">
<g clip-path="url(#clip0_55_47)">
<path d="M5.65714 1.73242H26.3429C28.9291 1.73242 31 3.80627 31 6.41576V26.0491C31 28.6586 28.9291 30.7324 26.3429 30.7324H5.65714C3.07092 30.7324 1 28.6586 1 26.0491V6.41576C1 3.80627 3.07092 1.73242 5.65714 1.73242Z" stroke="#212A2F" stroke-width="2"/>
<path d="M15.4855 19.1027H10.6284L9.65695 22.3749C9.65695 22.4897 9.54266 22.5471 9.42838 22.5471H6.97123C6.85695 22.5471 6.7998 22.4897 6.7998 22.3175L11.0284 10.0897C11.0855 9.97488 11.0855 9.80265 11.1427 9.63043C11.1998 9.4008 11.2569 9.17117 11.1998 8.88414C11.1998 8.82673 11.2569 8.76932 11.3141 8.71191C11.3141 8.71191 11.3141 8.71191 11.3712 8.71191H14.7427C14.8569 8.71191 14.9141 8.76932 14.9141 8.82673L19.7141 22.2601C19.7712 22.3749 19.7141 22.4897 19.5998 22.4897H16.8569C16.7427 22.4897 16.6855 22.4323 16.6284 22.3175L15.4855 19.1027ZM11.3712 16.8064H14.9712C14.9141 16.5193 14.5712 15.8878 14.4569 15.5434C14.3427 15.199 14.1712 14.9119 14.0569 14.5101C13.9427 14.1082 13.8284 13.7064 13.6569 13.3045C13.5427 12.9027 13.4284 12.5008 13.3141 12.1564C13.1998 11.7545 13.0855 11.4101 13.0284 11.123C12.9141 11.6971 12.7427 12.2712 12.5712 12.8452C12.3998 13.4767 12.1712 14.1082 11.9427 14.7971C11.7712 15.3712 11.5427 16.2323 11.3712 16.8064Z" fill="#212A2F"/>
<path d="M22.5141 10.8934C22.0569 10.8934 21.6569 10.7212 21.3712 10.4342C21.0855 10.0897 20.9141 9.68786 20.9141 9.2286C20.9141 8.76934 21.0855 8.36749 21.3712 8.02304C21.7141 7.736 22.1141 7.56378 22.5712 7.56378C23.0283 7.56378 23.4283 7.6786 23.7712 8.02304C24.0569 8.36749 24.2284 8.76934 24.2284 9.2286C24.2284 9.68786 24.0569 10.0897 23.7712 10.4342C23.4283 10.7212 22.9712 10.8934 22.5141 10.8934ZM21.1426 22.2601V12.5008C21.1426 12.386 21.1998 12.3286 21.3141 12.3286H23.7141C23.8283 12.3286 23.8855 12.386 23.8855 12.5008V22.2027C23.8855 22.3175 23.8283 22.4323 23.7141 22.4323H21.3141C21.1998 22.4323 21.1426 22.3749 21.1426 22.2601Z" fill="#212A2F"/>
</g>
<defs>
<clipPath id="clip0_55_47">
<rect width="32" height="31" fill="white" transform="translate(0 0.732422)"/>
</clipPath>
</defs>
</svg>
