<svg width="55" height="53" viewBox="0 0 55 53" fill="none" xmlns="http://www.w3.org/2000/svg">
<g clip-path="url(#clip0_54_17)">
<path d="M9.64057 1H44.8919C49.6955 1 53.5325 4.83698 53.5325 9.64057V42.9443C53.5325 47.7479 49.6955 51.5849 44.8919 51.5849H9.64057C4.83698 51.5849 1 47.7479 1 42.9443V9.64057C1 4.83698 4.83698 1 9.64057 1Z" stroke="#212A2F" stroke-width="2"/>
<path d="M26.3896 31.1613H18.1123L16.4569 36.7119C16.4569 36.9067 16.2621 37.004 16.0673 37.004H11.88C11.6853 37.004 11.5879 36.9067 11.5879 36.6145L18.794 15.8727C18.8914 15.6779 18.8914 15.3858 18.9887 15.0937C19.0861 14.7041 19.1835 14.3146 19.0861 13.8277C19.0861 13.7303 19.1835 13.633 19.2809 13.5356C19.2809 13.5356 19.2809 13.5356 19.3782 13.5356H25.1236C25.3184 13.5356 25.4158 13.633 25.4158 13.7303L33.5957 36.5171C33.693 36.7119 33.5957 36.9067 33.4009 36.9067H28.7267C28.5319 36.9067 28.4345 36.8093 28.3372 36.6145L26.3896 31.1613ZM19.3782 27.2661H25.5132C25.4158 26.7792 24.8315 25.708 24.6367 25.1237C24.442 24.5395 24.1498 24.0526 23.9551 23.3709C23.7603 22.6893 23.5656 22.0076 23.2734 21.3259C23.0787 20.6443 22.8839 19.9626 22.6891 19.3784C22.4944 18.6967 22.2996 18.1124 22.2023 17.6255C22.0075 18.5993 21.7154 19.5731 21.4232 20.5469C21.1311 21.6181 20.7416 22.6893 20.352 23.8578C20.0599 24.8316 19.6704 26.2923 19.3782 27.2661Z" fill="#FF9A00"/>
<path d="M38.3668 17.236C37.5877 17.236 36.9061 16.9438 36.4192 16.4569C35.9323 15.8726 35.6401 15.191 35.6401 14.412C35.6401 13.6329 35.9323 12.9513 36.4192 12.367C37.0035 11.8801 37.6851 11.588 38.4641 11.588C39.2432 11.588 39.9248 11.7827 40.5091 12.367C40.996 12.9513 41.2881 13.6329 41.2881 14.412C41.2881 15.191 40.996 15.8726 40.5091 16.4569C39.9248 16.9438 39.1458 17.236 38.3668 17.236ZM36.0297 36.5171V19.9626C36.0297 19.7678 36.127 19.6704 36.3218 19.6704H40.4117C40.6065 19.6704 40.7039 19.7678 40.7039 19.9626V36.4197C40.7039 36.6145 40.6065 36.8092 40.4117 36.8092H36.3218C36.127 36.8092 36.0297 36.7119 36.0297 36.5171Z" fill="#FF9A00"/>
</g>
<defs>
<clipPath id="clip0_54_17">
<rect width="54.5325" height="52.5849" fill="white"/>
</clipPath>
</defs>
</svg>
