<svg width="360" height="165" viewBox="0 0 360 165" fill="none" xmlns="http://www.w3.org/2000/svg">
<path d="M16.8371 61.6173L57.0309 58.0547C63.8821 57.4152 65.4351 60.1557 65.4351 63.0789C65.4351 68.8339 59.8627 72.5792 43.5112 72.5792C20.1257 72.5792 0.211517 63.1702 0.211517 46.5446C0.211517 38.2318 7.97622 33.847 16.9285 37.501L35.1984 44.9917C39.4005 46.7273 41.2274 43.3474 37.5735 40.7896L10.3513 21.8803C6.24058 18.9571 3.95685 15.6685 3.95685 12.2886C3.95685 3.15361 14.9188 0.413122 27.0683 0.413122C39.3091 0.321774 53.0115 2.42281 58.3098 4.88925C63.1513 7.17298 65.7091 10.0962 65.4351 15.3031C65.161 20.7841 61.0503 22.9764 53.1942 20.236L15.8323 7.17298C11.3562 5.62005 8.88972 9.36537 8.88972 11.3751C8.88972 13.6588 9.62052 15.4858 13.9139 16.856L49.5402 28.1834C57.579 30.7412 58.8579 35.0346 58.8579 38.4145C58.8579 42.7993 56.4828 47.0014 49.5402 47.8235L16.8371 51.8429C11.2648 52.5737 9.16377 54.4007 9.16377 57.0498C9.16377 59.6076 11.5389 62.074 16.8371 61.6173ZM118.357 27.9093L115.982 44.1695C114.977 50.838 116.347 53.7612 119.271 53.7612C121.006 53.7612 122.833 52.665 124.203 49.2851L139.002 13.3848C142.93 3.8844 148.959 0.230426 156.176 0.230426C166.772 0.230426 172.893 7.35569 172.893 27.9093V47.1841C172.893 60.4297 171.431 72.4879 159.464 72.4879C149.599 72.4879 147.68 63.1702 151.517 53.7612L164.123 22.7937C164.945 20.7841 166.133 16.6733 166.133 14.1155C166.133 8.90862 163.118 5.07195 158.003 5.07195C153.801 5.07195 150.055 7.44703 150.786 12.1059L151.608 17.3128C152.796 24.8948 150.878 33.1162 148.137 38.5972L137.54 59.6076C132.608 69.4733 129.228 72.4879 125.026 72.4879C118.905 72.4879 115.982 66.9156 113.242 57.7806L98.8083 10.0962C96.3419 1.96607 86.6588 4.6152 88.7599 12.1972L99.0824 48.6457C100.087 52.2083 102.097 57.9633 102.097 61.8913C102.097 66.5502 99.7218 72.4879 92.0484 72.4879C86.9329 72.4879 80.9038 69.2906 80.9952 58.8768L81.1778 28.4574C81.2692 6.35084 85.928 0.321774 97.4381 0.321774C111.871 0.321774 120.824 10.9183 118.357 27.9093ZM200.731 50.3813L224.299 49.8332C229.506 49.7418 232.977 48.737 233.525 44.0782L237.453 11.7405C238.093 6.71624 235.626 3.51901 231.79 4.2498C227.953 4.9806 224.664 11.9232 223.294 14.755L212.241 37.4097C209.318 43.4387 204.202 44.6263 200.822 44.6263C195.433 44.6263 191.048 40.1502 191.048 34.4865C191.048 30.5585 193.788 26.9958 197.99 23.6159L216.352 8.99998C224.299 2.69686 227.588 0.321774 233.525 0.321774C239.006 0.321774 242.752 4.2498 243.939 10.4616L252.252 54.4007C254.17 64.6318 251.064 72.4879 241.655 72.4879C234.165 72.4879 230.602 67.7377 230.602 62.1654V57.4152C230.602 52.391 227.953 51.7515 224.756 54.492L215.803 62.1654C211.601 65.728 204.842 72.4879 197.351 72.4879C192.053 72.4879 186.115 69.4733 186.115 60.8865C186.115 53.5785 192.692 50.564 200.731 50.3813ZM264.658 21.9716C264.658 20.51 266.667 18.0436 268.951 15.3944L279.273 3.51901C281.192 1.32662 283.841 0.321774 286.49 0.321774C291.149 0.321774 295.625 3.51901 295.625 8.99998C295.625 14.1155 292.519 16.4906 288.134 18.0436L278.086 21.5149C276.898 21.8803 276.35 22.7024 276.35 23.6159C276.35 25.1688 277.903 25.1688 278.725 25.0775L284.937 24.3467C294.163 23.2505 297.269 31.0152 291.24 37.9578L273.793 57.872C272.331 59.5162 271.874 60.247 271.874 61.1605C271.874 62.9875 273.427 64.5405 275.163 63.8097L286.125 59.0595C289.961 57.4152 294.438 57.9633 294.986 63.2616C295.625 69.382 288.317 72.4879 281.283 72.4879C270.869 72.4879 266.028 65.5453 268.494 56.4104L275.894 29.3709C276.076 28.7315 276.168 28.1834 276.168 27.7266C276.168 25.6256 274.523 24.8948 271.6 24.8948H267.672C265.388 24.8948 264.658 23.6159 264.658 21.9716ZM310.58 53.3958L315.97 14.755C317.34 4.9806 320.994 0.321774 327.206 0.321774C332.412 0.321774 338.259 3.79305 338.259 10.7356C338.259 13.1107 337.528 15.9425 335.792 19.2311L316.518 55.0401C314.965 57.872 313.869 60.3384 313.869 62.1654C313.869 64.5405 315.878 66.0934 317.431 66.0934C319.35 66.0934 321.999 64.0837 326.657 60.5211L335.062 54.0353C338.533 51.3861 341.73 50.2899 344.471 50.2899C350.5 50.2899 354.519 55.4969 354.519 60.7038C354.519 65.9107 350.591 71.1176 340.999 71.1176H322.821C312.864 71.1176 310.215 67.7377 310.215 58.3287C310.215 56.8671 310.306 55.2228 310.58 53.3958ZM190.317 93.692H208.952C228.958 93.692 237.819 103.558 237.819 122.102C237.819 135.804 232.064 146.127 218.27 146.127C210.414 146.127 205.024 142.929 198.904 134.891L188.399 121.097C186.115 118.174 181.821 117.991 178.99 121.097C176.523 123.837 176.98 127.857 179.355 130.506L190.591 143.112C194.336 147.406 195.889 150.877 195.889 155.353C195.889 161.747 191.961 164.488 184.927 164.488C178.624 164.488 172.869 162.387 172.869 150.877V111.505C172.869 101.274 178.442 93.692 190.317 93.692ZM186.298 112.601C186.298 114.154 187.211 115.525 189.495 116.712L221.193 132.79C230.419 137.448 235.535 131.602 230.785 124.842L216.9 104.928C213.611 100.269 211.967 99.8124 207.034 101.822L190.134 108.765C187.759 109.77 186.298 110.683 186.298 112.601ZM242.721 145.396L248.11 106.755C249.481 96.9806 253.135 92.3218 259.346 92.3218C264.553 92.3218 270.4 95.7931 270.4 102.736C270.4 105.111 269.669 107.943 267.933 111.231L248.659 147.04C247.106 149.872 246.009 152.338 246.009 154.165C246.009 156.54 248.019 158.093 249.572 158.093C251.49 158.093 254.14 156.084 258.798 152.521L267.203 146.035C270.674 143.386 273.871 142.29 276.612 142.29C282.641 142.29 286.66 147.497 286.66 152.704C286.66 157.911 282.732 163.118 273.14 163.118H254.962C245.005 163.118 242.355 159.738 242.355 150.329C242.355 148.867 242.447 147.223 242.721 145.396ZM330.037 92.4131C351.961 92.4131 359.451 104.015 359.451 114.611C359.451 119.635 357.442 125.482 351.961 125.482C347.576 125.482 344.835 121.736 344.835 117.9V102.37C344.835 97.9854 342.095 95.7017 336.614 98.3508L304.642 113.789C300.805 115.616 297.516 117.077 298.43 120.457C299.343 123.837 302.175 124.294 305.281 122.833L324.647 113.88C333.325 109.861 339.263 115.707 339.446 122.284L339.537 125.756C339.628 129.136 341.09 129.592 344.744 130.415L350.499 131.785C354.244 132.698 356.711 136.352 356.711 140.098C356.711 155.992 340.451 164.671 324.373 164.671C308.57 164.671 292.949 157.911 292.949 141.468C292.949 134.982 295.415 130.506 300.805 130.506C304.367 130.506 309.757 133.977 304.824 141.376L300.805 147.406C299.709 149.05 299.983 150.694 300.896 151.334C302.358 152.338 304.276 152.247 307.291 151.608L346.662 143.112C350.59 142.29 351.504 140.554 351.23 138.636C350.956 136.626 349.768 135.804 346.845 135.256L300.348 126.852C295.141 125.938 292.583 122.284 292.583 117.9C292.583 105.202 309.118 92.4131 330.037 92.4131Z" fill="#212A2F"/>
<path d="M58.4925 136.17L56.1174 119.909C53.651 102.918 62.6032 92.3218 77.0364 92.3218C88.5465 92.3218 93.2053 98.3508 93.2966 120.457L93.4794 150.877C93.5707 161.291 87.5416 164.488 82.4261 164.488C74.7527 164.488 72.3776 158.55 72.3776 153.891C72.3776 149.963 74.3873 144.208 75.3921 140.646L85.7146 104.197C87.8157 96.6152 78.1326 93.9661 75.6662 102.096L61.233 149.781C58.4925 158.916 55.5693 164.488 49.4489 164.488C45.2468 164.488 41.8669 161.473 36.934 151.608L26.3375 130.597C23.597 125.116 21.6786 116.895 22.8662 109.313L23.6883 104.106C24.4191 99.447 20.6738 97.0719 16.4717 97.0719C11.3562 97.0719 8.34162 100.909 8.34162 106.116C8.34162 108.673 9.52917 112.784 10.3513 114.794L22.9575 145.761C26.7942 155.17 24.8759 164.488 15.0101 164.488C3.04335 164.488 1.58176 152.43 1.58176 139.184V119.909C1.58176 99.3557 7.70218 92.2304 18.2987 92.2304C25.5153 92.2304 31.5444 95.8844 35.4724 105.385L50.271 141.285C51.6413 144.665 53.4683 145.761 55.2039 145.761C58.1271 145.761 59.4973 142.838 58.4925 136.17ZM157.126 106.938L116.933 103.375C111.634 102.918 109.259 105.385 109.259 107.943C109.259 110.592 111.36 112.419 116.933 113.149L149.636 117.169C156.578 117.991 158.953 122.193 158.953 126.578C158.953 129.958 157.674 134.251 149.636 136.809L114.009 148.136C109.716 149.507 108.985 151.334 108.985 153.617C108.985 155.627 111.452 159.372 115.928 157.819L153.29 144.756C161.146 142.016 165.256 144.208 165.531 149.689C165.805 154.896 163.247 157.819 158.405 160.103C153.107 162.57 139.405 164.671 127.164 164.579C115.014 164.579 104.052 161.839 104.052 152.704C104.052 149.324 106.336 146.035 110.447 143.112L137.669 124.203C141.323 121.645 139.496 118.265 135.294 120.001L117.024 127.491C108.072 131.145 100.307 126.761 100.307 118.448C100.307 101.822 120.221 92.4131 143.607 92.4131C159.958 92.4131 165.531 96.1585 165.531 101.913C165.531 104.837 163.978 107.577 157.126 106.938Z" fill="#A6BDE7"/>
</svg>
