<svg width="33" height="32" viewBox="0 0 33 32" fill="none" xmlns="http://www.w3.org/2000/svg">
<g clip-path="url(#clip0_63_115)">
<path d="M5.83393 1.73242H27.1661C29.8797 1.73242 32 3.83512 32 6.41576V26.0491C32 28.6297 29.8797 30.7324 27.1661 30.7324H5.83393C3.12033 30.7324 1 28.6297 1 26.0491V6.41576C1 3.83512 3.12033 1.73242 5.83393 1.73242Z" stroke="#212A2F" stroke-width="2"/>
<path d="M21.1263 29.6407V26.1771C21.1716 25.6017 21.0939 25.0232 20.8983 24.4801C20.7026 23.937 20.3937 23.4417 19.9919 23.0273C23.7813 22.6049 27.7638 21.1688 27.7638 14.5796C27.7635 12.8947 27.1154 11.2744 25.9536 10.054C26.5037 8.57991 26.4648 6.95051 25.845 5.50432C25.845 5.50432 24.421 5.08193 21.1263 7.29041C18.3603 6.54076 15.4446 6.54076 12.6786 7.29041C9.38399 5.08193 7.95995 5.50432 7.95995 5.50432C7.34009 6.95051 7.3012 8.57991 7.85134 10.054C6.68087 11.2834 6.03208 12.9184 6.04111 14.6158C6.04111 21.1568 10.0236 22.5929 13.813 23.0635C13.416 23.4738 13.1098 23.9631 12.9143 24.4995C12.7189 25.036 12.6385 25.6076 12.6786 26.1771V29.6407" stroke="#212A2F" stroke-width="1.81023" stroke-linecap="round" stroke-linejoin="round"/>
<path d="M12.6782 27.2269C9.05774 28.4014 6.0407 27.2269 4.23047 23.6064" stroke="#212A2F" stroke-width="1.81023" stroke-linecap="round" stroke-linejoin="round"/>
</g>
<defs>
<clipPath id="clip0_63_115">
<rect width="33" height="31" fill="white" transform="translate(0 0.732422)"/>
</clipPath>
</defs>
</svg>
