<svg width="34" height="32" viewBox="0 0 34 32" fill="none" xmlns="http://www.w3.org/2000/svg">
<g clip-path="url(#clip0_63_97)">
<path d="M6.20405 1.73242H27.5362C30.2498 1.73242 32.3701 3.83512 32.3701 6.41576V26.0491C32.3701 28.6297 30.2498 30.7324 27.5362 30.7324H6.20405C3.49044 30.7324 1.37012 28.6297 1.37012 26.0491V6.41576C1.37012 3.83512 3.49044 1.73242 6.20405 1.73242Z" stroke="#212A2F" stroke-width="2"/>
<path fill-rule="evenodd" clip-rule="evenodd" d="M16.8699 3.28363C9.14527 3.28363 2.88867 9.51529 2.88867 17.2092C2.88867 23.3713 6.89081 28.576 12.4483 30.4211C13.1474 30.543 13.4095 30.1252 13.4095 29.7596C13.4095 29.4289 13.3921 28.3322 13.3921 27.166C9.8793 27.81 8.9705 26.313 8.69087 25.5297C8.53359 25.1294 7.85199 23.8935 7.2578 23.5628C6.76847 23.3016 6.06937 22.6576 7.24031 22.6402C8.34132 22.6228 9.12778 23.6498 9.38991 24.0675C10.6483 26.1738 12.658 25.5819 13.462 25.2164C13.5843 24.3113 13.9513 23.702 14.3533 23.3539C11.2424 23.0057 7.99183 21.8047 7.99183 16.4781C7.99183 14.9637 8.53359 13.7104 9.4249 12.7356C9.28506 12.3875 8.79572 10.9601 9.56468 9.0453C9.56468 9.0453 10.7356 8.67978 13.4095 10.4727C14.528 10.1594 15.7164 10.0027 16.9048 10.0027C18.0932 10.0027 19.2816 10.1594 20.4001 10.4727C23.074 8.66234 24.245 9.0453 24.245 9.0453C25.0139 10.9601 24.5246 12.3875 24.3848 12.7356C25.2761 13.7104 25.8178 14.9463 25.8178 16.4781C25.8178 21.822 22.5497 23.0057 19.4389 23.3539C19.9457 23.7891 20.3826 24.6246 20.3826 25.9301C20.3826 27.7927 20.3652 29.2897 20.3652 29.7596C20.3652 30.1252 20.6273 30.5604 21.3264 30.4211C26.8489 28.576 30.8511 23.3539 30.8511 17.2092C30.8511 9.51529 24.5945 3.28363 16.8699 3.28363Z" fill="#212A2F"/>
</g>
<defs>
<clipPath id="clip0_63_97">
<rect width="33" height="31" fill="white" transform="translate(0.370117 0.732422)"/>
</clipPath>
</defs>
</svg>
