<svg width="34" height="32" viewBox="0 0 34 32" fill="none" xmlns="http://www.w3.org/2000/svg">
<g clip-path="url(#clip0_63_126)">
<path d="M5.98823 1.73242H27.3204C30.034 1.73242 32.1543 3.83512 32.1543 6.41576V26.0491C32.1543 28.6297 30.034 30.7324 27.3204 30.7324H5.98823C3.27462 30.7324 1.1543 28.6297 1.1543 26.0491V6.41576C1.1543 3.83512 3.27462 1.73242 5.98823 1.73242Z" stroke="#212A2F" stroke-width="2"/>
<path d="M11.3356 25.8638H7.34196V13.0031H11.3356V25.8638ZM9.33636 11.2488C8.05951 11.2488 7.02344 10.1907 7.02344 8.91388C7.02344 7.63702 8.05882 6.60095 9.33636 6.60095C10.6139 6.60095 11.6493 7.63633 11.6493 8.91388C11.6493 10.1907 10.6132 11.2488 9.33636 11.2488ZM26.2822 25.8638H22.2975V19.6034C22.2975 18.1112 22.2673 16.198 20.2213 16.198C18.145 16.198 17.8265 17.8188 17.8265 19.4961V25.8638H13.837V13.0031H17.6669V14.7574H17.7226C18.2558 13.7468 19.5581 12.6805 21.5009 12.6805C25.5426 12.6805 26.2856 15.3422 26.2856 18.7992V25.8638H26.2822Z" fill="#212A2F"/>
</g>
<defs>
<clipPath id="clip0_63_126">
<rect width="33" height="31" fill="white" transform="translate(0.154297 0.732422)"/>
</clipPath>
</defs>
</svg>
