<svg width="247" height="250" viewBox="0 0 247 250" fill="none" xmlns="http://www.w3.org/2000/svg">
<path d="M110.028 132.313C95.5831 147.561 93.9393 175.047 105.115 192.83C116.291 210.614 139.808 219.479 160.018 213.778C166.192 212.049 172.264 208.877 175.789 203.533C179.348 198.149 179.865 191.292 179.42 184.844C178.332 169.597 172.61 155.048 163.021 143.145C168.219 152.851 175.545 161.993 185.675 166.305C195.806 170.617 209.103 168.793 215.603 159.899C220.011 153.904 220.681 145.952 220.169 138.532C218.936 120.621 211.014 102.539 196.329 92.2046C181.644 81.8704 159.846 81.1535 146.416 93.0697C151.115 87.3685 152.781 79.5645 151.972 72.2201C151.163 64.8757 148.085 57.9534 144.164 51.6747C136.793 39.8945 125.65 29.7277 112.036 26.9322C98.423 24.1366 82.5244 30.5068 77.3639 43.4085C74.0796 51.6164 75.4644 61.156 79.3977 69.0736C83.3311 76.9912 89.5783 83.5193 96.1687 89.4164C83.6311 80.5044 68.7454 73.8633 53.3794 74.5541C38.0134 75.2448 22.4263 84.6909 17.9576 99.4136C13.8798 112.862 19.996 128.146 30.9557 136.943C41.9154 145.74 56.8291 148.584 70.7807 146.891C84.7323 145.197 97.8692 139.363 110.028 132.313Z" fill="#A6BDE7"/>
<path d="M108.993 131.147C99.5975 141.15 95.5935 155.336 96.3368 168.866C97.088 182.511 102.611 195.333 113.057 204.323C123.146 213.004 136.738 217.701 150.044 216.955C157.319 216.542 164.801 214.686 170.879 210.543C174.193 208.338 176.852 205.281 178.575 201.693C180.152 198.346 180.852 194.64 181.046 190.963C181.459 183.302 180.121 175.388 177.886 168.061C175.595 160.532 172.173 153.395 167.737 146.894C166.623 145.246 165.425 143.658 164.184 142.106C163.092 140.751 160.809 142.28 161.636 143.815C168.305 156.19 178.877 168.384 193.72 169.918C199.836 170.547 206.31 169.325 211.472 165.899C216.974 162.246 220.093 156.432 221.25 150.039C222.485 143.24 221.842 136.036 220.526 129.295C219.21 122.4 216.846 115.748 213.515 109.57C207.163 97.9318 196.969 88.4199 184.101 84.64C170.964 80.7962 155.91 82.7001 145.395 91.8877L147.72 93.8893C155.943 83.7309 154.705 69.5728 149.558 58.3414C144.355 46.9963 135.715 36.3974 124.788 30.1732C114.668 24.4058 102.751 22.9539 91.8499 27.4398C86.9342 29.4634 82.4933 32.6916 79.2566 36.9285C75.8082 41.4436 74.0684 47.0897 73.9724 52.7327C73.7487 68.2153 84.0912 80.6276 94.9993 90.4122L96.999 88.0892C84.86 79.4974 70.4638 72.8285 55.3262 72.931C41.321 73.0256 26.6484 79.7949 19.4257 92.185C12.381 104.275 14.6644 119.169 22.5591 130.255C30.9562 142.049 45.2777 147.937 59.4026 148.764C75.5301 149.714 91.2285 144.168 105.288 136.664C107.111 135.691 108.914 134.684 110.699 133.645C112.417 132.652 111.051 129.86 109.336 130.867C96.1291 138.514 81.5206 145.011 66.0566 145.708C52.6614 146.314 38.2644 142.616 28.6858 132.76C20.0124 123.834 15.5405 110.204 19.9832 98.1965C24.6802 85.5047 37.959 77.6969 50.9445 76.2455C65.0456 74.6693 79.1211 80.2055 90.8246 87.6449C92.3495 88.6158 93.8461 89.6292 95.3223 90.6745C96.7139 91.6595 98.6393 89.5308 97.322 88.3515C88.0352 80.0184 79.0259 70.0288 77.322 57.1735C76.6396 52.0196 77.2652 46.5389 79.7266 41.9096C82.026 37.5872 85.6711 34.1238 89.9326 31.774C99.3484 26.5772 110.519 26.7292 120.164 31.2185C130.597 36.0751 138.788 45.1618 144.397 55.0421C150.784 66.309 153.977 81.2409 145.121 92.1825C144.003 93.5642 146.168 95.3004 147.446 94.1804C155.968 86.7234 167.829 84.5054 178.793 86.5151C190.926 88.7344 201.138 96.2154 207.985 106.352C215.155 116.97 218.95 130.318 218.784 143.109C218.706 149.122 217.512 155.531 213.406 160.171C209.624 164.439 203.93 166.619 198.319 166.915C182.659 167.748 171.252 155.099 164.423 142.415L161.878 144.124C171.232 155.771 176.821 169.989 177.901 184.889C178.372 191.724 177.754 199.323 172.961 204.656C168.141 210.017 160.678 212.49 153.718 213.466C141.393 215.196 128.503 211.759 118.408 204.56C108.022 197.16 101.661 185.97 99.8771 173.412C98.0928 160.854 100.61 147.252 108.145 136.925C109.043 135.695 110.016 134.522 111.059 133.412C112.41 131.971 110.37 129.644 109.005 131.098L108.993 131.147Z" fill="#A6BDE7"/>
</svg>
