<svg width="279" height="233" viewBox="0 0 279 233" fill="none" xmlns="http://www.w3.org/2000/svg">
<path d="M133.341 74.1916C125.24 62.4485 116.722 50.672 105.329 42.0802C93.9348 33.4884 79.0739 28.4158 65.194 31.7901C51.3141 35.1644 39.6416 48.6318 41.299 62.8052C42.3358 71.6386 48.1219 79.3571 55.2272 84.7046C62.3325 90.0522 70.7162 93.3819 78.9884 96.6447C68.3044 92.8096 57.4792 88.9411 46.1783 87.8894C34.8775 86.8377 22.852 88.9039 13.9146 95.9014C4.97718 102.899 -0.0173478 115.501 3.92551 126.132C7.81634 136.646 18.8273 142.714 29.5113 146.114C52.5383 153.359 77.3513 152.504 99.825 143.691C86.1086 149.266 72.0837 156.393 64.1497 168.887C53.5401 185.573 57.6576 209.992 73.154 222.277C88.6504 234.563 113.363 233.006 127.191 218.869C135.567 210.322 139.766 198.33 140.941 186.405C142.115 174.48 140.472 162.473 138.588 150.644C139.733 164.918 144.631 179.11 153.854 190.062C163.078 201.013 176.82 208.427 191.146 208.527C205.472 208.628 219.939 200.805 226.42 188.036C233.425 174.246 230.292 156.735 221.106 144.29C211.919 131.844 197.568 124.007 182.677 119.822C204.034 127.436 227.375 127.385 248.698 119.677C261.545 114.984 274.682 105.511 275.748 91.8731C276.752 79.004 265.748 67.4207 253.228 64.2694C240.709 61.1181 227.405 64.7302 215.762 70.3156C204.119 75.901 193.491 83.4337 181.77 88.8519C193.327 79.5614 204.338 68.7846 210.013 55.083C215.688 41.3815 214.881 24.1571 204.77 13.3059C195.435 3.27222 179.648 0.730366 166.813 5.50193C153.977 10.2735 144.163 21.4815 139.049 34.1684C133.936 46.8554 133.137 60.9769 134.553 74.6004" fill="#A6BDE7"/>
<path d="M135.244 73.0767C120.903 52.3256 102.497 28.9992 74.8078 28.5421C63.139 28.3452 52.102 33.414 45.0338 42.7713C37.9657 52.1286 37.0924 64.2731 43.0122 74.474C50.5932 87.5437 65.0082 93.5045 78.405 98.7926L79.5793 94.5264C65.2758 89.3907 50.2216 84.0691 34.7772 85.7488C21.6034 87.1795 8.70083 93.7051 3.08199 106.284C0.510399 112.033 -0.455804 118.522 1.14586 124.683C2.69179 130.61 6.53802 135.657 11.3022 139.399C22.079 147.865 36.7282 151.231 50.0915 152.632C67.1679 154.407 84.4213 152.073 100.412 145.824L99.2379 141.558C84.4178 147.601 68.4643 155.568 60.716 170.396C54.0269 183.228 54.6996 199.285 61.6154 211.887C68.8136 224.997 82.6191 232.586 97.4467 232.779C112.924 232.98 127.273 225.298 135.233 211.968C146.426 193.228 143.966 170.622 140.699 150.057C140.328 147.616 136.147 148.162 136.355 150.648C137.685 166.523 143.312 182.351 154.43 194.045C164.724 204.874 179.871 211.954 195 210.582C209.002 209.308 222.797 201.132 228.839 188.118C235.179 174.454 232.689 158.017 224.666 145.568C215.338 131.116 199.459 122.297 183.264 117.697C180.492 116.909 179.436 121.019 182.086 121.963C197.84 127.524 214.731 129.071 231.232 126.463C245.179 124.285 260.445 119.332 270.252 108.626C274.712 103.795 277.725 97.7223 277.993 91.0778C278.261 84.4333 275.503 78.0712 271.282 73.0618C261.43 61.3299 245.581 59.063 231.31 62.3555C212.73 66.644 197.653 79.0114 180.641 86.938L183.324 90.4126C194.933 81.0516 206.011 70.2004 211.886 56.2239C217.089 43.8787 217.46 28.5979 210.281 16.9291C203.101 5.26032 189.099 -0.26562 175.75 1.17997C161.777 2.69245 149.945 11.5035 142.353 23.0459C132.42 38.1596 130.55 56.982 132.319 74.5929C132.605 77.3986 137.031 77.4283 136.745 74.5929C135.259 59.7988 136.173 44.1203 143.063 30.6603C148.782 19.4524 158.57 9.69371 171.016 6.50524C182.755 3.49142 196.367 6.54983 204.29 16.1041C212.313 25.7661 212.837 39.8876 209.017 51.4077C204.09 66.291 192.094 77.7145 180.206 87.2985C178.117 88.9819 180.778 91.7579 182.885 90.7731C197.007 84.1954 209.582 74.4814 224.261 69.1078C237.201 64.3697 252.905 62.8944 264.195 72.2666C268.803 76.0942 272.4 81.282 273.378 87.2762C274.325 93.0845 272.318 98.9524 268.795 103.553C260.754 114.062 246.803 118.916 234.321 121.435C217.278 124.836 199.631 123.545 183.264 117.7L182.086 121.967C195.423 125.757 208.285 132.398 217.36 143.112C226.019 153.335 230.393 167.895 226.769 181.016C223.194 193.982 211.682 202.983 198.779 205.592C185.26 208.323 171.101 203.146 160.956 194.183C148.525 183.202 142.145 166.91 140.781 150.641L136.433 151.228C139.164 168.419 141.375 186.725 134.623 203.306C131.84 210.144 127.429 216.599 121.405 220.969C116.001 224.845 109.7 227.285 103.095 228.059C89.9065 229.635 76.0787 224.841 68.1224 213.893C60.4448 203.328 58.3042 188.995 62.7414 176.698C68.5832 160.492 85.4695 151.915 100.412 145.821C103.013 144.765 101.899 140.507 99.2379 141.555C86.1064 146.709 72.0664 149.147 57.9661 148.723C45.1416 148.333 31.3546 145.899 19.9497 139.756C14.9366 137.058 10.2616 133.438 7.41504 128.403C4.56846 123.368 4.13738 117.541 5.66101 112.033C9.03157 99.8219 20.1541 92.6312 32.0978 90.5389C47.9547 87.763 63.7038 93.5119 78.405 98.774C81.1141 99.7476 82.1806 95.5335 79.5793 94.5078C68.6278 90.1859 57.0073 85.5519 49.4486 76.0719C46.1041 71.8652 43.644 66.6626 43.3876 61.2295C43.1534 56.3985 44.5656 51.6938 47.0777 47.5838C52.5256 38.665 62.3437 33.3508 72.697 32.9718C84.3211 32.5481 95.7001 37.3829 104.764 44.4213C115.596 52.831 123.698 64.117 131.42 75.3064C133.029 77.6327 136.864 75.4216 135.244 73.0767Z" fill="#A6BDE7"/>
</svg>
