<svg width="34" height="32" viewBox="0 0 34 32" fill="none" xmlns="http://www.w3.org/2000/svg">
<g clip-path="url(#clip0_55_57)">
<path d="M6.32514 1.73242H27.6573C30.3709 1.73242 32.4912 3.83512 32.4912 6.41576V26.0491C32.4912 28.6297 30.3709 30.7324 27.6573 30.7324H6.32514C3.61154 30.7324 1.49121 28.6297 1.49121 26.0491V6.41576C1.49121 3.83512 3.61154 1.73242 6.32514 1.73242Z" stroke="#212A2F" stroke-width="2"/>
<path d="M7.32715 22.375V8.82689C7.32715 8.71207 7.38608 8.65466 7.44501 8.65466C7.68072 8.65466 7.97536 8.65466 8.27001 8.65466C8.56465 8.65466 8.91822 8.65466 9.33072 8.65466C9.68429 8.65466 10.0968 8.65466 10.5093 8.65466C10.9218 8.65466 11.3343 8.65466 11.7468 8.65466C12.6896 8.65466 13.6325 8.76948 14.5164 9.05651C15.2236 9.28614 15.8129 9.63059 16.3432 10.1473C16.7557 10.5491 17.1093 11.0658 17.345 11.6398C17.5218 12.2139 17.6396 12.788 17.6396 13.3621C17.6986 14.338 17.4039 15.3139 16.8146 16.175C16.2843 16.9213 15.5182 17.4954 14.6343 17.7824C13.6325 18.1269 12.6307 18.2991 11.57 18.2991C11.2754 18.2991 11.0396 18.2991 10.9218 18.2991C10.8039 18.2991 10.5682 18.2991 10.3325 18.2991V22.4898C10.3325 22.6047 10.2736 22.6621 10.1557 22.6621H10.0968H7.44501C7.38608 22.5473 7.32715 22.4898 7.32715 22.375ZM10.3325 11.1806V15.601C10.5093 15.601 10.6861 15.601 10.8629 15.601H11.57C12.1004 15.601 12.6307 15.5436 13.1021 15.3713C13.5146 15.2565 13.9271 15.0269 14.2218 14.6824C14.5164 14.2806 14.6932 13.8213 14.6343 13.3047C14.6343 12.9028 14.5164 12.501 14.3396 12.1565C14.1039 11.8121 13.7504 11.525 13.3968 11.4102C12.8664 11.238 12.3361 11.1232 11.8057 11.1232C11.4521 11.1232 11.1575 11.1232 10.8629 11.1232C10.6271 11.1806 10.4504 11.1806 10.3325 11.1806Z" fill="#212A2F"/>
<path d="M26.1254 14.7399C25.595 14.5102 25.0647 14.3954 24.5343 14.2806C24.0629 14.1658 23.5325 14.1084 23.0022 14.1084C22.7075 14.1084 22.4718 14.1084 22.1772 14.2232C22.0004 14.2806 21.8825 14.338 21.7647 14.5102C21.7057 14.6251 21.6468 14.7399 21.6468 14.8547C21.6468 14.9695 21.7057 15.0843 21.7647 15.1991C21.8825 15.3714 22.0593 15.4862 22.2361 15.5436C22.5307 15.7158 22.8843 15.8306 23.1789 16.0028C23.8861 16.2325 24.5932 16.5769 25.2414 16.9788C25.7129 17.2658 26.0664 17.6102 26.3022 18.0695C26.5379 18.4714 26.6557 18.9306 26.5968 19.4473C26.5968 20.0788 26.42 20.6528 26.0664 21.2269C25.7129 21.7436 25.1825 22.1454 24.5343 22.4325C23.7682 22.7195 22.9432 22.8917 22.0593 22.8343C21.47 22.8343 20.8218 22.7769 20.2325 22.6621C19.7022 22.5473 19.2307 22.4325 18.7593 22.2603C18.6414 22.2028 18.5825 22.088 18.5825 22.0306V19.7343C18.5825 19.6769 18.5825 19.6195 18.6414 19.6195C18.7004 19.6195 18.7004 19.6195 18.7593 19.6195C19.2897 19.9065 19.8789 20.1362 20.5272 20.251C21.0575 20.3658 21.5879 20.4232 22.1182 20.4806C22.5307 20.4806 22.8843 20.4232 23.2379 20.3084C23.4736 20.1936 23.5914 20.0214 23.5914 19.7343C23.5914 19.5047 23.4736 19.3325 23.2379 19.2177C22.8254 18.9306 22.3539 18.7584 21.8825 18.5862C21.1754 18.3565 20.5272 18.0121 19.9379 17.6102C19.5254 17.3232 19.1718 16.9214 18.9361 16.5195C18.7004 16.1177 18.6414 15.6584 18.6414 15.1991C18.6414 14.6251 18.8182 14.1084 19.1129 13.5917C19.4664 13.0751 19.9379 12.6158 20.5272 12.3862C21.1754 12.0417 21.9414 11.8695 22.7075 11.8695C23.2968 11.8121 23.945 11.8695 24.5343 11.8695C25.0057 11.9843 25.5361 12.0991 25.9486 12.3288C26.0075 12.3288 26.0664 12.3862 26.0664 12.4436C26.0664 12.501 26.0664 12.5584 26.0664 12.6158V14.7399C26.0664 14.7973 26.0664 14.8547 26.0075 14.8547C26.2432 14.7973 26.1843 14.7973 26.1254 14.7399Z" fill="#212A2F"/>
</g>
<defs>
<clipPath id="clip0_55_57">
<rect width="33" height="31" fill="white" transform="translate(0.491211 0.732422)"/>
</clipPath>
</defs>
</svg>
