<svg width="56" height="53" viewBox="0 0 56 53" fill="none" xmlns="http://www.w3.org/2000/svg">
<g clip-path="url(#clip0_54_27)">
<path d="M10.2553 1H45.5067C50.3103 1 54.1472 4.83698 54.1472 9.64057V42.9443C54.1472 47.7479 50.3103 51.5849 45.5067 51.5849H10.2553C5.45173 51.5849 1.61475 47.7479 1.61475 42.9443V9.64057C1.61475 4.83698 5.45173 1 10.2553 1Z" stroke="#212A2F" stroke-width="2"/>
<path d="M11.9106 36.712V13.7305C11.9106 13.5357 12.008 13.4384 12.1054 13.4384C12.4949 13.4384 12.9818 13.4384 13.4687 13.4384C13.9556 13.4384 14.5399 13.4384 15.2215 13.4384C15.8058 13.4384 16.4875 13.4384 17.1691 13.4384C17.8508 13.4384 18.5324 13.4384 19.2141 13.4384C20.7722 13.4384 22.3302 13.6331 23.7909 14.12C24.9595 14.5095 25.9333 15.0938 26.8097 15.9702C27.4914 16.6519 28.0756 17.5283 28.4652 18.5021C28.7573 19.4759 28.9521 20.4497 28.9521 21.4235C29.0494 23.0789 28.5625 24.7344 27.5887 26.1951C26.7123 27.461 25.4464 28.4348 23.9857 28.9217C22.3302 29.506 20.6748 29.7981 18.922 29.7981C18.4351 29.7981 18.0456 29.7981 17.8508 29.7981C17.656 29.7981 17.2665 29.7981 16.877 29.7981V36.9068C16.877 37.1016 16.7796 37.1989 16.5849 37.1989H16.4875H12.1054C12.008 37.0042 11.9106 36.9068 11.9106 36.712ZM16.877 17.7231V25.2213C17.1691 25.2213 17.4613 25.2213 17.7534 25.2213H18.922C19.7984 25.2213 20.6748 25.1239 21.4538 24.8318C22.1355 24.637 22.8171 24.2475 23.304 23.6632C23.7909 22.9815 24.0831 22.2025 23.9857 21.3261C23.9857 20.6444 23.7909 19.9628 23.4988 19.3785C23.1093 18.7942 22.525 18.3073 21.9407 18.1126C21.0643 17.8204 20.1879 17.6257 19.3115 17.6257C18.7272 17.6257 18.2403 17.6257 17.7534 17.6257C17.3639 17.7231 17.0718 17.7231 16.877 17.7231Z" fill="#31A8FF"/>
<path d="M42.9743 23.7606C42.0979 23.3711 41.2215 23.1764 40.3451 22.9816C39.5661 22.7868 38.6896 22.6895 37.8132 22.6895C37.3263 22.6895 36.9368 22.6895 36.4499 22.8842C36.1578 22.9816 35.963 23.079 35.7683 23.3711C35.6709 23.5659 35.5735 23.7606 35.5735 23.9554C35.5735 24.1502 35.6709 24.3449 35.7683 24.5397C35.963 24.8318 36.2552 25.0266 36.5473 25.124C37.0342 25.4161 37.6185 25.6109 38.1054 25.903C39.2739 26.2925 40.4425 26.8768 41.5136 27.5584C42.2927 28.0453 42.877 28.6296 43.2665 29.4087C43.656 30.0903 43.8508 30.8693 43.7534 31.7458C43.7534 32.8169 43.4612 33.7907 42.877 34.7645C42.2927 35.6409 41.4163 36.3226 40.3451 36.8095C39.0792 37.2964 37.7158 37.5885 36.2552 37.4911C35.2814 37.4911 34.2102 37.3938 33.2364 37.199C32.36 37.0043 31.5809 36.8095 30.8019 36.5174C30.6071 36.42 30.5098 36.2252 30.5098 36.1278V32.2327C30.5098 32.1353 30.5098 32.0379 30.6071 32.0379C30.7045 32.0379 30.7045 32.0379 30.8019 32.0379C31.6783 32.5248 32.6521 32.9143 33.7233 33.1091C34.5997 33.3038 35.4761 33.4012 36.3525 33.4986C37.0342 33.4986 37.6185 33.4012 38.2027 33.2064C38.5923 33.0117 38.787 32.7196 38.787 32.2327C38.787 31.8431 38.5923 31.551 38.2027 31.3562C37.5211 30.8693 36.742 30.5772 35.963 30.2851C34.7945 29.8955 33.7233 29.3113 32.7495 28.6296C32.0678 28.1427 31.4836 27.4611 31.094 26.7794C30.7045 26.0977 30.6071 25.3187 30.6071 24.5397C30.6071 23.5659 30.8993 22.6895 31.3862 21.8131C31.9705 20.9366 32.7495 20.1576 33.7233 19.7681C34.7945 19.1838 36.0604 18.8917 37.3263 18.8917C38.3001 18.7943 39.3713 18.8917 40.3451 18.8917C41.1241 19.0864 42.0005 19.2812 42.6822 19.6707C42.7796 19.6707 42.877 19.7681 42.877 19.8655C42.877 19.9628 42.877 20.0602 42.877 20.1576V23.7606C42.877 23.858 42.877 23.9554 42.7796 23.9554C43.1691 23.858 43.0717 23.858 42.9743 23.7606Z" fill="#31A8FF"/>
</g>
<defs>
<clipPath id="clip0_54_27">
<rect width="54.5325" height="52.5849" fill="white" transform="translate(0.614746)"/>
</clipPath>
</defs>
</svg>
