<svg width="360" height="172" viewBox="0 0 360 172" fill="none" xmlns="http://www.w3.org/2000/svg">
<path d="M31.0699 75.5487C8.37153 75.5487 0.616257 63.5375 0.616257 52.5666C0.616257 47.3649 2.69694 41.312 8.37153 41.312C12.9112 41.312 15.7485 45.1896 15.7485 49.1618V65.2398C15.7485 69.7795 18.5858 72.1439 24.2604 69.4012L57.3622 53.4178C61.3344 51.5262 64.7391 50.013 63.7934 46.5137C62.8476 43.0144 59.9157 42.5415 56.7001 44.0547L36.6499 53.3232C27.6651 57.4846 21.5177 51.4317 21.3285 44.6222L21.2339 41.0283C21.1394 37.5289 19.6261 37.056 15.8431 36.2049L9.88475 34.7862C6.00712 33.8404 3.45355 30.0574 3.45355 26.1797C3.45355 9.72343 20.2882 0.738662 36.9336 0.738662C53.2954 0.738662 69.468 7.73732 69.468 24.7611C69.468 31.476 66.9144 36.1103 61.3344 36.1103C57.6459 36.1103 52.0659 32.5164 57.173 24.8557L61.3344 18.6136C62.4693 16.9112 62.1856 15.2089 61.2398 14.5468C59.7266 13.5065 57.7405 13.6011 54.6194 14.2631L13.857 23.0587C9.79018 23.9099 8.84441 25.7069 9.12814 27.693C9.41187 29.7736 10.6414 30.6248 13.6678 31.1923L61.8073 39.8933C67.1981 40.8391 69.8463 44.6222 69.8463 49.1618C69.8463 62.308 52.7279 75.5487 31.0699 75.5487ZM92.8269 58.052L108.054 13.7902C109.945 8.39936 108.999 6.2241 106.446 6.2241C105.595 6.2241 104.554 6.69698 103.609 7.73732L93.016 19.5594C84.315 29.2062 70.3177 23.7208 70.3177 12.8445C70.3177 8.02105 73.4387 2.34646 83.2746 2.34646H115.62C132.738 2.34646 143.142 11.8041 143.142 24.9502C143.142 30.814 138.602 36.0157 132.549 36.2049C123.943 36.4886 121.2 30.2465 121.2 17.195V13.0336C121.2 8.87224 120.254 5.75121 117.038 5.75121C114.485 5.75121 113.445 8.21021 113.35 14.1685L112.31 60.4164C112.12 70.4415 110.229 75.6433 101.15 75.6433C91.0299 75.6433 88.9492 68.3609 92.8269 58.052ZM177.061 31.3815L157.768 52.2829C155.592 54.5527 153.323 58.9032 156.16 62.8754C158.997 66.8476 164.01 67.4151 172.143 63.2537L199.003 49.4456C204.583 46.6083 205.907 41.5011 202.029 35.732L190.397 18.519C185.857 11.8041 188.316 0.927813 198.436 0.927813C205.623 0.927813 209.501 5.18376 209.501 15.6817V46.3245C209.501 64.2941 196.449 75.6433 177.345 75.6433C156.822 75.6433 145.946 67.1314 145.946 48.8781V13.4119C145.946 5.18376 148.594 0.927813 155.403 0.927813C160.794 0.927813 164.01 4.33257 164.01 8.87224C164.01 12.3716 161.929 14.8306 157.768 19.654L152.282 25.9906C150.391 28.1658 151.053 29.7736 152.093 30.814C152.85 31.5706 154.552 32.2326 156.538 30.6248L167.509 21.7346C176.872 14.1685 184.627 23.1533 177.061 31.3815ZM233.428 18.6136L267.381 40.5554C271.259 43.0144 273.339 45.6625 271.542 48.9727C269.367 52.8503 264.071 51.6208 257.356 48.689L231.442 37.5289C225.578 35.3537 222.457 40.6499 225.767 45.6625L235.131 60.1327C240.711 68.7392 235.887 75.6433 226.902 75.6433C220.282 75.6433 216.31 71.2927 217.161 63.9158L222.741 17.0058C223.876 7.54817 229.361 2.34646 237.779 2.34646H270.691C277.028 2.34646 282.892 5.37291 282.892 12.3716C282.892 20.5052 278.447 23.1533 272.867 23.1533C269.556 23.1533 262.369 19.7485 257.829 17.6679L240.711 9.91258C234.847 7.26444 231.915 9.15597 230.685 11.5204C229.645 13.7902 230.023 16.4384 233.428 18.6136ZM301.132 18.6136L335.085 40.5554C338.962 43.0144 341.043 45.6625 339.246 48.9727C337.071 52.8503 331.774 51.6208 325.059 48.689L299.146 37.5289C293.282 35.3537 290.161 40.6499 293.471 45.6625L302.834 60.1327C308.414 68.7392 303.591 75.6433 294.606 75.6433C287.985 75.6433 284.013 71.2927 284.864 63.9158L290.444 17.0058C291.579 7.54817 297.065 2.34646 305.482 2.34646H338.395C344.731 2.34646 350.595 5.37291 350.595 12.3716C350.595 20.5052 346.15 23.1533 340.57 23.1533C337.26 23.1533 330.072 19.7485 325.532 17.6679L308.414 9.91258C302.55 7.26444 299.618 9.15597 298.389 11.5204C297.349 13.7902 297.727 16.4384 301.132 18.6136ZM98.4756 142.325L96.0166 125.49C93.4631 107.899 102.732 96.9278 117.675 96.9278C129.591 96.9278 134.415 103.17 134.509 126.057L134.698 157.551C134.793 168.333 128.551 171.643 123.255 171.643C115.31 171.643 112.851 165.496 112.851 160.672C112.851 156.606 114.932 150.647 115.972 146.959L126.659 109.223C128.835 101.373 118.81 98.6302 116.256 107.047L101.313 156.416C98.4756 165.874 95.4492 171.643 89.1125 171.643C84.762 171.643 81.2627 168.522 76.1555 158.308L65.1847 136.555C62.3474 130.881 60.3613 122.369 61.5908 114.519L62.442 109.128C63.1986 104.305 59.3209 101.846 54.9704 101.846C49.6741 101.846 46.5531 105.818 46.5531 111.209C46.5531 113.857 47.7826 118.113 48.6338 120.194L61.6853 152.255C65.6576 161.996 63.6714 171.643 53.4572 171.643C41.0677 171.643 39.5544 159.159 39.5544 145.446V125.49C39.5544 104.21 45.8911 96.8332 56.8619 96.8332C64.3335 96.8332 70.5755 100.616 74.6423 110.452L89.9637 147.621C91.3824 151.12 93.2739 152.255 95.0708 152.255C98.0973 152.255 99.5159 149.229 98.4756 142.325ZM155.008 148.756L179.409 148.188C184.8 148.094 188.393 147.053 188.961 142.23L193.028 108.75C193.69 103.548 191.136 100.238 187.164 100.995C183.192 101.751 179.787 108.939 178.368 111.871L166.925 135.326C163.898 141.568 158.602 142.797 155.103 142.797C149.523 142.797 144.983 138.163 144.983 132.299C144.983 128.233 147.82 124.544 152.171 121.045L171.181 105.913C179.409 99.3868 182.813 96.9278 188.961 96.9278C194.636 96.9278 198.513 100.995 199.743 107.426L208.349 152.917C210.335 163.51 207.12 171.643 197.378 171.643C189.623 171.643 185.934 166.725 185.934 160.956V156.038C185.934 150.836 183.192 150.174 179.882 153.012L170.613 160.956C166.263 164.645 159.264 171.643 151.509 171.643C146.023 171.643 139.876 168.522 139.876 159.632C139.876 152.066 146.685 148.945 155.008 148.756ZM223.652 98.3465H256.47C276.993 98.3465 285.032 111.587 285.032 134.758C285.032 159.065 271.224 171.643 242.378 171.549C217.977 171.454 213.059 148.756 222.423 129.746L225.922 122.653C227.53 119.342 226.111 117.924 221.855 117.167C216.559 116.221 214.1 112.628 214.1 108.277C214.1 103.359 217.41 98.3465 223.652 98.3465ZM256.47 161.051L272.832 121.612C276.615 112.438 270.373 107.71 263.185 109.128L239.541 113.668C231.502 115.181 228.759 119.437 230.556 125.868L240.298 160.105C243.04 169.846 253.538 168.049 256.47 161.051ZM350.501 112.06L308.888 108.372C303.402 107.899 300.943 110.452 300.943 113.1C300.943 115.843 303.118 117.735 308.888 118.491L342.746 122.653C349.934 123.504 352.393 127.854 352.393 132.394C352.393 135.893 351.069 140.338 342.746 142.987L305.861 154.714C301.416 156.133 300.659 158.024 300.659 160.389C300.659 162.469 303.213 166.347 307.847 164.739L346.529 151.215C354.663 148.377 358.919 150.647 359.202 156.322C359.486 161.713 356.838 164.739 351.825 167.104C346.34 169.657 332.153 171.832 319.48 171.738C306.902 171.738 295.552 168.901 295.552 159.443C295.552 155.944 297.917 152.539 302.173 149.512L330.357 129.935C334.14 127.287 332.248 123.788 327.898 125.584L308.982 133.34C299.714 137.123 291.675 132.583 291.675 123.977C291.675 106.764 312.292 97.0224 336.504 97.0224C353.433 97.0224 359.202 100.9 359.202 106.858C359.202 109.885 357.595 112.722 350.501 112.06Z" fill="#212A2F"/>
<path d="M0.427104 119.342C0.427104 117.829 2.50779 115.276 4.8722 112.533L15.5593 100.238C17.5455 97.9682 20.2882 96.9278 23.0309 96.9278C27.8543 96.9278 32.4885 100.238 32.4885 105.913C32.4885 111.209 29.2729 113.668 24.7333 115.276L14.3299 118.87C13.1004 119.248 12.5329 120.099 12.5329 121.045C12.5329 122.653 14.1407 122.653 14.9919 122.558L21.4231 121.801C30.9753 120.667 34.1909 128.706 27.9489 135.893L9.88475 156.511C8.37153 158.213 7.89865 158.97 7.89865 159.916C7.89865 161.807 9.50645 163.415 11.3034 162.658L22.6526 157.741C26.6248 156.038 31.259 156.606 31.8265 162.091C32.4885 168.428 24.9224 171.643 17.64 171.643C6.85831 171.643 1.84575 164.455 4.39932 154.998L12.06 127.003C12.2492 126.341 12.3437 125.774 12.3437 125.301C12.3437 123.126 10.6414 122.369 7.61492 122.369H3.54813C1.18372 122.369 0.427104 121.045 0.427104 119.342Z" fill="#A6BDE7"/>
</svg>
